<svg id="Layer_1" data-name="Layer 1" xmlns="http://www.w3.org/2000/svg" viewBox="0 0 864 154.8805">
  <g>
    <path id="tagline_PathItem_" data-name="tagline &lt;PathItem&gt;" d="M108.9947,145.0831c.0436-.0207.0861-.0436.13-.0645-.0447.0214-.0891.0434-.1338.0647Z" style="fill: #1174a5"/>
    <path id="tagline_PathItem_2" data-name="tagline &lt;PathItem&gt;" d="M152.5758,76.1407A76.2986,76.2986,0,0,0,81.6942.0377c-13.2815-.6969-12.5276,8.4811-2.7479,10.363l.6164.1085.0009.0019c23.18,3.917,42.72,21.5834,42.72,45.8866A46.02,46.02,0,0,1,60.5427,99.6335c-11.3743,33.1284,27.5666,55.247,57.72,40.22A76.2227,76.2227,0,0,0,152.5758,76.1407Z" style="fill: #6eb1ff"/>
    <path id="tagline_PathItem_3" data-name="tagline &lt;PathItem&gt;" d="M111.463,143.8527c-.0368.0191-.0732.0389-.11.0581C111.39,143.8916,111.4262,143.8718,111.463,143.8527Z" style="fill: #1174a5"/>
    <path id="tagline_PathItem_4" data-name="tagline &lt;PathItem&gt;" d="M113.7447,142.6161l-.02.0116Z" style="fill: #1174a5"/>
    <path id="tagline_PathItem_5" data-name="tagline &lt;PathItem&gt;" d="M60.5427,99.6335c2.5349-7.3832,7.5661-15.3126,15.7538-23.5,44.93-44.93-25.7382-97.0918-63.688-42.0181a76.3119,76.3119,0,0,0,96.3821,110.9681c.0447-.0213.0891-.0433.1338-.0647q1.1241-.5369,2.2286-1.1078c.0368-.0192.0732-.039.11-.0581q1.142-.5944,2.2616-1.225l.02-.0116q2.3161-1.3077,4.53-2.7687l-.0119.0058C88.1093,154.8805,49.1684,132.7619,60.5427,99.6335Z" style="fill: #175aff"/>
    <path id="tagline_CompoundPathItem_" data-name="tagline &lt;CompoundPathItem&gt;" d="M845.9192,32.1707H842.81V30.0753h8.5844v2.0954h-3.1094v8.3141h-2.3656Zm7.6717-2.0954h2.5008l2.7377,4.3935,2.7373-4.3935H864v10.41h-2.2306v-7.03l-2.8724,4.5626h-.2031l-2.8724-4.5626v7.03h-2.2306Z"/>
    <path id="tagline_CompoundPathItem_2" data-name="tagline &lt;CompoundPathItem&gt;" d="M194.0243,31.0336A10.4923,10.4923,0,1,1,204.45,41.46,10.5346,10.5346,0,0,1,194.0243,31.0336Zm1.98,18.3446h17.0247V115.366H196.004Z"/>
    <path id="tagline_CompoundPathItem_3" data-name="tagline &lt;CompoundPathItem&gt;" d="M323.9791,74.7175V115.366H306.9543V75.9054c0-7.7866-3.9594-12.5378-11.086-12.5378-7.5223,0-12.2735,5.015-12.2735,14.9134v37.085H266.57V75.9054c0-7.7866-3.9594-12.5378-11.0861-12.5378-7.2585,0-12.4058,5.015-12.4058,14.9134v37.085H226.0533V49.3782h17.0248v6.9947c3.6952-5.5428,9.8981-8.8423,18.3445-8.8423,8.1827,0,14.2537,3.4314,17.9489,9.5022,4.0914-5.9389,10.69-9.5022,19.6644-9.5022C314.081,47.5306,323.9791,58.2207,323.9791,74.7175Z"/>
    <path id="tagline_CompoundPathItem_4" data-name="tagline &lt;CompoundPathItem&gt;" d="M403.4775,49.3782V115.366H386.4527V107.58c-4.7508,5.9389-11.8779,9.6341-21.5117,9.6341-17.5528,0-32.07-15.1771-32.07-34.8415s14.5175-34.8415,32.07-34.8415c9.6338,0,16.7609,3.6954,21.5117,9.6343V49.3782ZM386.4527,82.3721c0-11.0858-7.7865-18.6086-18.3446-18.6086-10.4261,0-18.2126,7.5228-18.2126,18.6086s7.7865,18.6086,18.2126,18.6086C378.6662,100.9807,386.4527,93.4581,386.4527,82.3721Z"/>
    <path id="tagline_CompoundPathItem_5" data-name="tagline &lt;CompoundPathItem&gt;" d="M483.5714,49.3782v62.82c0,21.6439-17.0252,31.41-34.4456,31.41-14.1219,0-25.4717-5.4111-31.2785-16.101l14.5175-8.3144c2.7715,5.1472,7.1266,9.2385,17.2885,9.2385,10.69,0,17.289-5.807,17.289-16.2332V105.072c-4.6193,6.2027-11.746,10.03-21.1161,10.03-18.7407,0-32.862-15.1771-32.862-33.7857,0-18.4765,14.1213-33.7857,32.862-33.7857,9.37,0,16.4968,3.8273,21.1161,10.03V49.3782ZM466.9423,81.3163c0-10.4259-7.7865-17.9487-18.4764-17.9487s-18.477,7.5228-18.477,17.9487c0,10.558,7.7866,18.0808,18.477,18.0808S466.9423,91.8743,466.9423,81.3163Z"/>
    <path id="tagline_CompoundPathItem_6" data-name="tagline &lt;CompoundPathItem&gt;" d="M529.72,101.7725c6.5986,0,11.8779-2.7713,14.7813-6.5986l13.7252,7.9184c-6.2025,8.9744-16.1006,14.1213-28.77,14.1213-22.1721,0-36.1615-15.1771-36.1615-34.8415s14.1213-34.8415,34.8417-34.8415c19.5321,0,33.39,15.4411,33.39,34.8415a39.3021,39.3021,0,0,1-.66,6.9947H511.1116C513.4875,98.0773,520.746,101.7725,529.72,101.7725Zm14.7813-25.6031c-2.1116-9.5023-9.2383-13.33-16.3649-13.33-9.1063,0-15.3092,4.8832-17.289,13.33Z"/>
    <path id="tagline_CompoundPathItem_7" data-name="tagline &lt;CompoundPathItem&gt;" d="M619.8971,96.0975c0,14.2535-12.4058,21.1161-26.5272,21.1161-13.1976,0-22.9639-5.5428-27.7147-15.7049l14.7813-8.3146c1.8474,5.4109,6.3348,8.5784,12.9334,8.5784,5.4112,0,9.1064-1.8476,9.1064-5.675,0-9.6341-34.05-4.3551-34.05-27.5828,0-13.4614,11.4817-20.9841,25.075-20.9841,10.69,0,19.9286,4.8831,25.0755,13.9894L604.06,69.4387a11.1626,11.1626,0,0,0-10.5581-6.731c-4.2232,0-7.6546,1.8478-7.6546,5.4111C585.8472,77.8851,619.8971,71.814,619.8971,96.0975Z"/>
    <path id="tagline_CompoundPathItem_8" data-name="tagline &lt;CompoundPathItem&gt;" d="M690.7667,74.85V115.366H673.7415V76.9612c0-8.9745-5.4106-13.5936-13.0653-13.5936-8.3145,0-14.5175,4.8831-14.5175,16.3651V115.366H629.134V22.9833h17.0247V56.769c3.96-5.9389,10.8223-9.2384,19.6644-9.2384C679.8126,47.5306,690.7667,57.2968,690.7667,74.85Z"/>
    <path id="tagline_CompoundPathItem_9" data-name="tagline &lt;CompoundPathItem&gt;" d="M699.5144,82.3721a34.9076,34.9076,0,1,1,34.8418,34.8415A34.4769,34.4769,0,0,1,699.5144,82.3721Zm52.79,0c0-10.69-7.7865-18.2127-17.9484-18.2127-10.03,0-17.817,7.5228-17.817,18.2127s7.7865,18.2127,17.817,18.2127C744.5181,100.5848,752.3046,93.0622,752.3046,82.3721Z"/>
    <path id="tagline_CompoundPathItem_10" data-name="tagline &lt;CompoundPathItem&gt;" d="M849.3576,82.3721c0,19.6644-14.517,34.8415-32.2017,34.8415-9.6343,0-16.629-3.5633-21.38-9.6341v34.1814H778.7509V49.3782h17.0247v7.7867c4.7513-6.071,11.746-9.6343,21.38-9.6343C834.8406,47.5306,849.3576,62.7077,849.3576,82.3721Zm-17.0247,0c0-11.0858-7.7866-18.6086-18.3446-18.6086-10.4261,0-18.2127,7.5228-18.2127,18.6086s7.7866,18.6086,18.2127,18.6086C824.5463,100.9807,832.3329,93.4581,832.3329,82.3721Z"/>
  </g>
</svg>
